<mxfile host="Electron" modified="2024-05-18T03:34:01.245Z" agent="Mozilla/5.0 (Macintosh; Intel Mac OS X 10_15_7) AppleWebKit/537.36 (KHTML, like Gecko) draw.io/24.4.0 Chrome/120.0.6099.109 Electron/28.1.0 Safari/537.36" etag="w1SZNOT9MCgI8TCZlJ_O" version="24.4.0" type="device">
  <diagram id="C5RBs43oDa-KdzZeNtuy" name="Page-1">
    <mxGraphModel dx="1114" dy="894" grid="1" gridSize="10" guides="1" tooltips="1" connect="1" arrows="1" fold="1" page="1" pageScale="1" pageWidth="827" pageHeight="1169" math="0" shadow="0">
      <root>
        <mxCell id="WIyWlLk6GJQsqaUBKTNV-0" />
        <mxCell id="WIyWlLk6GJQsqaUBKTNV-1" parent="WIyWlLk6GJQsqaUBKTNV-0" />
        <mxCell id="i9rtaOsniiCGuzM1hri7-15" value="" style="ellipse;whiteSpace=wrap;html=1;aspect=fixed;fillColor=#FFFFFF;" vertex="1" parent="WIyWlLk6GJQsqaUBKTNV-1">
          <mxGeometry x="538" y="405" width="30" height="30" as="geometry" />
        </mxCell>
        <mxCell id="i9rtaOsniiCGuzM1hri7-8" style="edgeStyle=orthogonalEdgeStyle;rounded=0;orthogonalLoop=1;jettySize=auto;html=1;endArrow=block;endFill=1;" edge="1" parent="WIyWlLk6GJQsqaUBKTNV-1" source="i9rtaOsniiCGuzM1hri7-0" target="i9rtaOsniiCGuzM1hri7-1">
          <mxGeometry relative="1" as="geometry" />
        </mxCell>
        <mxCell id="i9rtaOsniiCGuzM1hri7-0" value="" style="ellipse;whiteSpace=wrap;html=1;aspect=fixed;fillColor=#000000;" vertex="1" parent="WIyWlLk6GJQsqaUBKTNV-1">
          <mxGeometry x="40" y="85" width="30" height="30" as="geometry" />
        </mxCell>
        <mxCell id="i9rtaOsniiCGuzM1hri7-9" style="edgeStyle=orthogonalEdgeStyle;rounded=0;orthogonalLoop=1;jettySize=auto;html=1;entryX=0;entryY=0.5;entryDx=0;entryDy=0;endArrow=block;endFill=1;" edge="1" parent="WIyWlLk6GJQsqaUBKTNV-1" source="i9rtaOsniiCGuzM1hri7-1" target="i9rtaOsniiCGuzM1hri7-2">
          <mxGeometry relative="1" as="geometry" />
        </mxCell>
        <mxCell id="i9rtaOsniiCGuzM1hri7-21" value="주문함 [결제 안함]" style="edgeLabel;html=1;align=center;verticalAlign=middle;resizable=0;points=[];" vertex="1" connectable="0" parent="i9rtaOsniiCGuzM1hri7-9">
          <mxGeometry x="-0.5538" y="-4" relative="1" as="geometry">
            <mxPoint x="25" y="-14" as="offset" />
          </mxGeometry>
        </mxCell>
        <mxCell id="i9rtaOsniiCGuzM1hri7-18" style="edgeStyle=orthogonalEdgeStyle;rounded=0;orthogonalLoop=1;jettySize=auto;html=1;entryX=0;entryY=0.5;entryDx=0;entryDy=0;endArrow=block;endFill=1;" edge="1" parent="WIyWlLk6GJQsqaUBKTNV-1" source="i9rtaOsniiCGuzM1hri7-1" target="i9rtaOsniiCGuzM1hri7-3">
          <mxGeometry relative="1" as="geometry">
            <Array as="points">
              <mxPoint x="180" y="180" />
            </Array>
          </mxGeometry>
        </mxCell>
        <mxCell id="i9rtaOsniiCGuzM1hri7-23" value="주문함 [결제함]" style="edgeLabel;html=1;align=center;verticalAlign=middle;resizable=0;points=[];" vertex="1" connectable="0" parent="i9rtaOsniiCGuzM1hri7-18">
          <mxGeometry x="-0.0986" y="1" relative="1" as="geometry">
            <mxPoint x="47" y="-10" as="offset" />
          </mxGeometry>
        </mxCell>
        <mxCell id="i9rtaOsniiCGuzM1hri7-1" value="주문 전" style="rounded=1;whiteSpace=wrap;html=1;fontSize=12;glass=0;strokeWidth=1;shadow=0;" vertex="1" parent="WIyWlLk6GJQsqaUBKTNV-1">
          <mxGeometry x="140" y="80" width="80" height="40" as="geometry" />
        </mxCell>
        <mxCell id="i9rtaOsniiCGuzM1hri7-10" style="edgeStyle=orthogonalEdgeStyle;rounded=0;orthogonalLoop=1;jettySize=auto;html=1;entryX=0.5;entryY=0;entryDx=0;entryDy=0;endArrow=block;endFill=1;" edge="1" parent="WIyWlLk6GJQsqaUBKTNV-1" source="i9rtaOsniiCGuzM1hri7-2" target="i9rtaOsniiCGuzM1hri7-3">
          <mxGeometry relative="1" as="geometry" />
        </mxCell>
        <mxCell id="i9rtaOsniiCGuzM1hri7-26" value="결제함" style="edgeLabel;html=1;align=center;verticalAlign=middle;resizable=0;points=[];" vertex="1" connectable="0" parent="i9rtaOsniiCGuzM1hri7-10">
          <mxGeometry x="0.05" y="-2" relative="1" as="geometry">
            <mxPoint x="-17" y="-5" as="offset" />
          </mxGeometry>
        </mxCell>
        <mxCell id="i9rtaOsniiCGuzM1hri7-16" style="edgeStyle=orthogonalEdgeStyle;rounded=0;orthogonalLoop=1;jettySize=auto;html=1;entryX=0.5;entryY=0;entryDx=0;entryDy=0;endArrow=block;endFill=1;" edge="1" parent="WIyWlLk6GJQsqaUBKTNV-1" source="i9rtaOsniiCGuzM1hri7-2" target="i9rtaOsniiCGuzM1hri7-7">
          <mxGeometry relative="1" as="geometry" />
        </mxCell>
        <mxCell id="i9rtaOsniiCGuzM1hri7-24" value="주문 취소함" style="edgeLabel;html=1;align=center;verticalAlign=middle;resizable=0;points=[];" vertex="1" connectable="0" parent="i9rtaOsniiCGuzM1hri7-16">
          <mxGeometry x="-0.61" y="-3" relative="1" as="geometry">
            <mxPoint y="-14" as="offset" />
          </mxGeometry>
        </mxCell>
        <mxCell id="i9rtaOsniiCGuzM1hri7-2" value="결제 대기 중" style="rounded=1;whiteSpace=wrap;html=1;fontSize=12;glass=0;strokeWidth=1;shadow=0;" vertex="1" parent="WIyWlLk6GJQsqaUBKTNV-1">
          <mxGeometry x="333" y="80" width="80" height="40" as="geometry" />
        </mxCell>
        <mxCell id="i9rtaOsniiCGuzM1hri7-11" style="edgeStyle=orthogonalEdgeStyle;rounded=0;orthogonalLoop=1;jettySize=auto;html=1;entryX=0.5;entryY=0;entryDx=0;entryDy=0;endArrow=block;endFill=1;" edge="1" parent="WIyWlLk6GJQsqaUBKTNV-1" source="i9rtaOsniiCGuzM1hri7-3" target="i9rtaOsniiCGuzM1hri7-4">
          <mxGeometry relative="1" as="geometry" />
        </mxCell>
        <mxCell id="i9rtaOsniiCGuzM1hri7-27" value="택배사에서 상품 수령" style="edgeLabel;html=1;align=center;verticalAlign=middle;resizable=0;points=[];" vertex="1" connectable="0" parent="i9rtaOsniiCGuzM1hri7-11">
          <mxGeometry x="0.05" y="1" relative="1" as="geometry">
            <mxPoint x="-51" y="-4" as="offset" />
          </mxGeometry>
        </mxCell>
        <mxCell id="i9rtaOsniiCGuzM1hri7-17" style="edgeStyle=orthogonalEdgeStyle;rounded=0;orthogonalLoop=1;jettySize=auto;html=1;entryX=0;entryY=0.5;entryDx=0;entryDy=0;endArrow=block;endFill=1;" edge="1" parent="WIyWlLk6GJQsqaUBKTNV-1" source="i9rtaOsniiCGuzM1hri7-3" target="i9rtaOsniiCGuzM1hri7-7">
          <mxGeometry relative="1" as="geometry" />
        </mxCell>
        <mxCell id="i9rtaOsniiCGuzM1hri7-25" value="주문 취소함/결제 취소" style="edgeLabel;html=1;align=center;verticalAlign=middle;resizable=0;points=[];" vertex="1" connectable="0" parent="i9rtaOsniiCGuzM1hri7-17">
          <mxGeometry x="-0.58" y="1" relative="1" as="geometry">
            <mxPoint x="27" y="-9" as="offset" />
          </mxGeometry>
        </mxCell>
        <mxCell id="i9rtaOsniiCGuzM1hri7-3" value="상품 준비 중" style="rounded=1;whiteSpace=wrap;html=1;fontSize=12;glass=0;strokeWidth=1;shadow=0;" vertex="1" parent="WIyWlLk6GJQsqaUBKTNV-1">
          <mxGeometry x="333" y="160" width="80" height="40" as="geometry" />
        </mxCell>
        <mxCell id="i9rtaOsniiCGuzM1hri7-12" style="edgeStyle=orthogonalEdgeStyle;rounded=0;orthogonalLoop=1;jettySize=auto;html=1;entryX=0.5;entryY=0;entryDx=0;entryDy=0;endArrow=block;endFill=1;" edge="1" parent="WIyWlLk6GJQsqaUBKTNV-1" source="i9rtaOsniiCGuzM1hri7-4" target="i9rtaOsniiCGuzM1hri7-5">
          <mxGeometry relative="1" as="geometry" />
        </mxCell>
        <mxCell id="i9rtaOsniiCGuzM1hri7-28" value="배송 시작" style="edgeLabel;html=1;align=center;verticalAlign=middle;resizable=0;points=[];" vertex="1" connectable="0" parent="i9rtaOsniiCGuzM1hri7-12">
          <mxGeometry x="-0.3" relative="1" as="geometry">
            <mxPoint x="-25" y="3" as="offset" />
          </mxGeometry>
        </mxCell>
        <mxCell id="i9rtaOsniiCGuzM1hri7-4" value="출고 완료" style="rounded=1;whiteSpace=wrap;html=1;fontSize=12;glass=0;strokeWidth=1;shadow=0;" vertex="1" parent="WIyWlLk6GJQsqaUBKTNV-1">
          <mxGeometry x="333" y="240" width="80" height="40" as="geometry" />
        </mxCell>
        <mxCell id="i9rtaOsniiCGuzM1hri7-13" style="edgeStyle=orthogonalEdgeStyle;rounded=0;orthogonalLoop=1;jettySize=auto;html=1;entryX=0.5;entryY=0;entryDx=0;entryDy=0;endArrow=block;endFill=1;" edge="1" parent="WIyWlLk6GJQsqaUBKTNV-1" source="i9rtaOsniiCGuzM1hri7-5" target="i9rtaOsniiCGuzM1hri7-6">
          <mxGeometry relative="1" as="geometry" />
        </mxCell>
        <mxCell id="i9rtaOsniiCGuzM1hri7-29" value="고객 수령" style="edgeLabel;html=1;align=center;verticalAlign=middle;resizable=0;points=[];" vertex="1" connectable="0" parent="i9rtaOsniiCGuzM1hri7-13">
          <mxGeometry x="-0.1" y="2" relative="1" as="geometry">
            <mxPoint x="-26" as="offset" />
          </mxGeometry>
        </mxCell>
        <mxCell id="i9rtaOsniiCGuzM1hri7-5" value="배송 중" style="rounded=1;whiteSpace=wrap;html=1;fontSize=12;glass=0;strokeWidth=1;shadow=0;" vertex="1" parent="WIyWlLk6GJQsqaUBKTNV-1">
          <mxGeometry x="333" y="320" width="80" height="40" as="geometry" />
        </mxCell>
        <mxCell id="i9rtaOsniiCGuzM1hri7-20" style="edgeStyle=orthogonalEdgeStyle;rounded=0;orthogonalLoop=1;jettySize=auto;html=1;entryX=0;entryY=0.5;entryDx=0;entryDy=0;endArrow=block;endFill=1;" edge="1" parent="WIyWlLk6GJQsqaUBKTNV-1" source="i9rtaOsniiCGuzM1hri7-6" target="i9rtaOsniiCGuzM1hri7-15">
          <mxGeometry relative="1" as="geometry" />
        </mxCell>
        <mxCell id="i9rtaOsniiCGuzM1hri7-6" value="배송 완료" style="rounded=1;whiteSpace=wrap;html=1;fontSize=12;glass=0;strokeWidth=1;shadow=0;" vertex="1" parent="WIyWlLk6GJQsqaUBKTNV-1">
          <mxGeometry x="333" y="400" width="80" height="40" as="geometry" />
        </mxCell>
        <mxCell id="i9rtaOsniiCGuzM1hri7-19" style="edgeStyle=orthogonalEdgeStyle;rounded=0;orthogonalLoop=1;jettySize=auto;html=1;entryX=0.5;entryY=0;entryDx=0;entryDy=0;endArrow=block;endFill=1;" edge="1" parent="WIyWlLk6GJQsqaUBKTNV-1" source="i9rtaOsniiCGuzM1hri7-7" target="i9rtaOsniiCGuzM1hri7-14">
          <mxGeometry relative="1" as="geometry" />
        </mxCell>
        <mxCell id="i9rtaOsniiCGuzM1hri7-7" value="주문 취소" style="rounded=1;whiteSpace=wrap;html=1;fontSize=12;glass=0;strokeWidth=1;shadow=0;" vertex="1" parent="WIyWlLk6GJQsqaUBKTNV-1">
          <mxGeometry x="513" y="160" width="80" height="40" as="geometry" />
        </mxCell>
        <mxCell id="i9rtaOsniiCGuzM1hri7-14" value="" style="ellipse;whiteSpace=wrap;html=1;aspect=fixed;fillColor=#000000;" vertex="1" parent="WIyWlLk6GJQsqaUBKTNV-1">
          <mxGeometry x="541" y="407" width="24" height="25" as="geometry" />
        </mxCell>
      </root>
    </mxGraphModel>
  </diagram>
</mxfile>
